# xmcd
#
# Track frame offsets:
#	150
#	55775
#	88618
#	130930
#	145827
#	161557
#	204908
#	229928
#	257733
#	278922
#	302782
#
# Disc length: 4521 seconds
#
# Revision: 0
# Processed by: cddbd v1.5.2PL0 Copyright (c) Steve Scherf et al.
# Submitted via: EZCDAudioConverter 7.1.1.1
#
DISCID=9711a70b
DTITLE=Grateful Dead - Dave's Picks Vol. 25 (Broome County, Binghampton '77)
DYEAR=2018
DGENRE=Psychedelic Rock
TTITLE0=Mississippi Half-Step Uptown Toodeloo
TTITLE1=Jack Straw
TTITLE2=Tennessee Jed
TTITLE3=Mexicali Blues>
TTITLE4=Me And My Uncle
TTITLE5=Friend Of The Devil
TTITLE6=New Minglewood Blues
TTITLE7=Dupree’s Diamond Blues
TTITLE8=Passenger
TTITLE9=Dire Wolf
TTITLE10=The Music Never Stopped
EXTD=
EXTT0=
EXTT1=
EXTT2=
EXTT3=
EXTT4=
EXTT5=
EXTT6=
EXTT7=
EXTT8=
EXTT9=
EXTT10=
PLAYORDER=
